inDegrees=yes
name=ik_S41_A03_T01
DataType=double
version=3
OpenSimVersion=4.3-2021-08-27-4bc7ad9
endheader
time	pelvis_tilt	pelvis_list	pelvis_rotation	pelvis_tx	pelvis_ty	pelvis_tz	hip_flexion_r	hip_adduction_r	hip_rotation_r	knee_angle_r	knee_angle_r_beta	ankle_angle_r	subtalar_angle_r	mtp_angle_r	hip_flexion_l	hip_adduction_l	hip_rotation_l	knee_angle_l	knee_angle_l_beta	ankle_angle_l	subtalar_angle_l	mtp_angle_l	lumbar_extension	lumbar_bending	lumbar_rotation	arm_flex_r	arm_add_r	arm_rot_r	elbow_flex_r	pro_sup_r	wrist_flex_r	wrist_dev_r	arm_flex_l	arm_add_l	arm_rot_l	elbow_flex_l	pro_sup_l	wrist_flex_l	wrist_dev_l
13.5799999999998	1.464199743250114	-3.451613708606329	92.29341370159969	0	0.9399999999999999	0	23.95440942865528	5.849623159866533	-4.752782348300016	3.363113611171832	0.05869740563358483	0	0	0	-1.599859142609427	0.9278609196198766	-0.9650485860101955	0.4911544338520223	0.008572262006486486	0	0	0	0	0	0	29.1523060268431	-29.1523060268431	4.178013170552295	73.59916297326282	85.82198706455468	0	0	29.1523060268431	-29.1523060268431	4.178013170552295	73.59916297326282	85.82198706440148	0	0
13.5999999999998	1.416683704852931	-3.463717013476914	92.75353687625439	0	0.9399999999999999	0	23.05634838894326	5.622358338486424	-7.06068515204835	0.7160726637678472	0.01249782566627524	0	0	0	-2.503389169656318	0.806628508848495	-1.270687706395401	0.4573258953776022	0.007981842628970275	0	0	0	0	0	0	29.11906153840626	-29.11906153840625	4.175334113086861	73.56190687814576	85.82466612188475	0	0	29.11906153840626	-29.11906153840625	4.175334113086861	73.56190687814576	85.82466612173106	0	0
13.6199999999998	1.384124036023412	-3.449722142259592	93.19788099451246	0	0.9399999999999999	0	22.32239892325751	5.383008739063047	-8.291312407713647	-1.235679092307769	-0.02156666865882551	0	0	0	-2.986741985289809	0.7492742696411436	-1.176641328533678	0.4728485210224308	0.008252763555027041	0	0	0	0	0	0	29.12495963521753	-29.12495963521752	4.175941019428614	73.57044581389515	85.82405921557482	0	0	29.12495963521753	-29.12495963521752	4.175941019428614	73.57044581389515	85.82405921542127	0	0
13.6399999999998	1.325260815161846	-3.449051836302353	93.59718630995528	0	0.9399999999999999	0	21.7814434501252	5.311167646235698	-8.220835596650272	-2.47479961246566	-0.04319340156460547	0	0	0	-3.465480602826233	0.7258470751026894	-1.025980319074424	0.439801852043572	0.007675990374529282	0	0	0	0	0	0	29.12873141660554	-29.12873141660554	4.176330155812169	73.57592140479841	85.82367007921179	0	0	29.12873141660554	-29.12873141660554	4.176330155812169	73.57592140479841	85.82367007905826	0	0
13.6599999999998	1.243540663572418	-3.434572674549461	94.06924688753507	0	0.9399999999999999	0	21.26480012259659	5.345848767580146	-7.791451783240364	-2.801224232412352	-0.04889058594224641	0	0	0	-3.987763583601814	0.7361421757270862	-0.7664999912643337	0.9760195819667841	0.01703475526925905	0	0	0	0	0	0	29.13147389958971	-29.13147389958971	4.176613030355815	73.57990169360858	85.82338720468299	0	0	29.13147389958971	-29.13147389958971	4.176613030355815	73.57990169360858	85.82338720452954	0	0
13.6799999999998	1.053280151237997	-3.450854299559181	94.96997579136993	0	0.9399999999999999	0	20.76534217263747	4.966216004082251	-7.790657472890251	-2.674338113939142	-0.04667600539981329	0	0	0	-4.465945692496823	0.8435089963886725	-0.03055228212249243	1.006134745153684	0.01756036402164584	0	0	0	0	0	0	29.13298808930593	-29.13298808930592	4.176768790210401	73.58209309958386	85.82323144483658	0	0	29.13298808930593	-29.13298808930592	4.176768790210401	73.58209309958386	85.82323144468315	0	0
13.6999999999998	0.9654629160735448	-3.382638502543629	95.45967535123631	0	0.9399999999999999	0	20.39485332766299	4.548636425081079	-6.717825684819321	-2.82950639311538	-0.04938420276609239	0	0	0	-5.122100154567366	0.891798862559197	0.3122810526573108	1.394137636371348	0.02433229198065147	0	0	0	0	0	0	29.13436266200076	-29.13436266200076	4.176910268637867	73.58408361731981	85.82308996641659	0	0	29.13436266200076	-29.13436266200076	4.176910268637867	73.58408361731981	85.82308996626315	0	0
13.7199999999998	0.9519584133787391	-3.298685559913688	95.68718354856652	0	0.9399999999999999	0	20.00515547580353	4.108460874015202	-4.972553399044696	-3.43909160678392	-0.06002347181608157	0	0	0	-5.709017280551027	0.9129836007707156	0.2039350642953993	1.468849241539942	0.02563625548029345	0	0	0	0	0	0	29.14081969182087	-29.14081969182087	4.177575802664202	73.59344765272054	85.82242443242522	0	0	29.14081969182087	-29.14081969182087	4.177575802664202	73.59344765272054	85.82242443227192	0	0
13.7399999999998	0.8992886599494423	-3.029755510830232	96.0226536028802	0	0.9399999999999999	0	18.92304214872265	3.766824432385337	-5.882142416619188	-3.265922939338826	-0.05700110840787356	0	0	0	-6.495442830568026	0.8516903826693111	0.02936717164241433	2.209143119706503	0.03855682108665769	0	0	0	0	0	0	29.14713368896884	-29.14713368896883	4.178225777883753	73.60259217179272	85.8217744572398	0	0	29.14713368896884	-29.14713368896883	4.178225777883753	73.60259217179272	85.8217744570866	0	0
13.7599999999998	0.85367659934322	-2.74478753445332	96.19585499071756	0	0.9399999999999999	0	18.64275204152285	3.744287139266468	-5.981950360973451	-2.843100106552583	-0.04962145782314418	0	0	0	-7.648444249301399	0.9215018713608156	-0.5723809528966376	2.090754170710549	0.03649054412870268	0	0	0	0	0	0	29.1488679922429	-29.14886799224289	4.178404262681338	73.60510323261462	85.82159597245159	0	0	29.1488679922429	-29.14886799224289	4.178404262681338	73.60510323261462	85.82159597229847	0	0
13.7799999999998	0.8273475795785775	-2.559431689892498	96.31636378944224	0	0.9399999999999999	0	17.12649771185367	3.025043038044701	-7.074611268968701	-2.869828446214528	-0.05008795535383651	0	0	0	-8.212735377847244	0.9268820646864485	-0.7824035854040894	2.430760387780299	0.04242477209382035	0	0	0	0	0	0	29.15162291283321	-29.15162291283321	4.178687087927487	73.60908173397888	85.82131314722028	0	0	29.15162291283321	-29.15162291283321	4.178687087927487	73.60908173397888	85.8213131470672	0	0
13.79999999999979	0.8259162896173874	-2.68071062302378	96.47695891319592	0	0.9399999999999999	0	17.3281150666244	2.172554479517535	-5.471981268316371	-2.651872601291954	-0.04628390823597142	0	0	0	-8.098431062929169	0.8040574614698298	-0.7374848108762143	3.424429004608182	0.05976756113120485	0	0	0	0	0	0	29.15777866809254	-29.15777866809254	4.179320743708706	73.61799630734583	85.82067949147235	0	0	29.15777866809254	-29.15777866809254	4.179320743708706	73.61799630734583	85.82067949131938	0	0
13.81999999999979	0.8133825562491634	-2.684173671649892	96.70659406839928	0	0.9399999999999999	0	17.34989284366441	2.147639942007945	-3.284442327832047	-2.511867343952848	-0.04384035552530207	0	0	0	-8.359703543861764	0.7612699788765416	-1.01360808531739	4.198035125035387	0.07326953504623934	0	0	0	0	0	0	29.18867549509725	-29.18867549509725	4.182114750777551	73.65707209112639	85.81788548454733	0	0	29.18867549509725	-29.18867549509725	4.182114750777551	73.65707209112639	85.81788548439492	0	0
13.83999999999979	0.7848692492348238	-2.581973550262686	96.88961240041817	0	0.9399999999999999	0	16.77872231794785	2.636435269013229	-2.51665622499044	-2.392168803137605	-0.04175122187824326	0	0	0	-8.618859357564798	0.4037654658371402	-1.30325979238273	6.132597735931256	0.1070340221923502	0	0	0	0	0	0	29.19231748486116	-29.19231748486116	4.18248942484509	73.6623426784237	85.81751081049946	0	0	29.19231748486116	-29.19231748486116	4.18248942484509	73.6623426784237	85.8175108103471	0	0
13.85999999999979	0.765112728182293	-2.459398744012313	97.13673677799356	0	0.9399999999999999	0	15.85055088713499	2.846666492440138	-3.21280517180488	-2.590286299063211	-0.04520902448795154	0	0	0	-8.891981874178274	0.3355756280090605	-2.525833151679554	7.426837380110363	0.1296227652931154	0	0	0	0	0	0	29.198210991581	-29.198210991581	4.183094658551602	73.6708557396037	85.81690557682472	0	0	29.198210991581	-29.198210991581	4.183094658551602	73.6708557396037	85.81690557667245	0	0
13.87999999999979	0.7614239354753409	-2.249144326752386	97.29107001389023	0	0.9399999999999999	0	15.00375726131812	2.950515660079996	-3.026305548828104	-2.598639642532037	-0.04535481783503253	0	0	0	-9.171685066147104	0.07778864932459749	-2.587665309970548	8.607484471606007	0.1502289443438092	0	0	0	0	0	0	29.20260487501623	-29.20260487501622	4.183546151730188	73.67720646048082	85.81645408366981	0	0	29.20260487501623	-29.20260487501622	4.183546151730188	73.67720646048082	85.8164540835176	0	0
13.89999999999979	0.7574786892512941	-2.166860772050526	97.31983125025847	0	0.9399999999999999	0	14.62578905805205	2.686476163945587	-1.245501169257843	-2.715310314833966	-0.04739110520721652	0	0	0	-8.70219272848861	0.1086174776066572	-4.003933877885047	10.68628490289639	0.1865108563617045	0	0	0	0	0	0	29.20653899031922	-29.20653899031921	4.183950717663695	73.68289720936134	85.81604951775756	0	0	29.20653899031922	-29.20653899031921	4.183950717663695	73.68289720936134	85.81604951760539	0	0
13.91999999999979	0.7856398376072062	-2.151134179615302	97.46510839696948	0	0.9399999999999999	0	14.23411391555594	2.617808193885902	0.7023717646292298	-2.919786404078768	-0.05095988620614009	0	0	0	-8.046710392724453	-0.1434794907586713	-4.582686490220821	12.14157694211616	0.211910494024152	0	0	0	0	0	0	29.21057750765698	-29.21057750765697	4.184365905794724	73.68873724177448	85.81563432964828	0	0	29.21057750765698	-29.21057750765697	4.184365905794724	73.68873724177448	85.81563432949626	0	0
13.93999999999979	0.784488945402774	-2.140530302834957	97.64008726623669	0	0.9399999999999999	0	13.46865192356466	2.594723492325981	1.032361765961364	-3.024056400821905	-0.0527797409603516	0	0	0	-7.182706570747691	-0.5247342960037086	-5.055177723954911	13.81354677292548	0.2410918725657871	0	0	0	0	0	0	29.21694381637643	-29.21694381637642	4.185018826252972	73.69792001192204	85.81498140922426	0	0	29.21694381637643	-29.21694381637642	4.185018826252972	73.69792001192204	85.81498140907242	0	0
13.95999999999979	0.7639355207595663	-2.08025356320509	97.8193970032942	0	0.9399999999999999	0	12.51069260164323	2.452697566947974	-0.2758254608237586	-2.943483395859562	-0.05137347673553298	0	0	0	-6.272091023046279	-1.306462868184767	-5.532189297703163	17.23478918663035	0.3008038171938152	0	0	0	0	0	0	29.22287709009016	-29.22287709009015	4.185624975388287	73.70644345799185	85.81437526012067	0	0	29.22287709009016	-29.22287709009015	4.185624975388287	73.70644345799185	85.81437525996894	0	0
13.97999999999979	0.7764857442639541	-1.974805624728934	98.08387347115702	0	0.9399999999999999	0	11.741585986203	2.502132620233144	-1.38086444465472	-2.722483712024205	-0.04751630460673952	0	0	0	-5.217337130090415	-2.076473004695183	-5.677475269350907	20.10669533379844	0.3509280352701631	0	0	0	0	0	0	29.22890376426175	-29.22890376426174	4.186239909778093	73.71508985881184	85.81376032576307	0	0	29.22890376426175	-29.22890376426174	4.186239909778093	73.71508985881184	85.8137603256114	0	0
13.99999999999979	0.778239133437405	-1.969298238206306	98.09147269378121	0	0.9399999999999999	0	11.3651167447398	2.654601107859262	-0.6501177196309013	-2.924393252004425	-0.05104029087058147	0	0	0	-3.90128173857918	-2.745366983112368	-5.71074499604405	23.24436882863201	0.4056907686075661	0	0	0	0	0	0	29.23645319927312	-29.23645319927311	4.187012092206863	73.72594814940742	85.81298814337484	0	0	29.23645319927312	-29.23645319927311	4.187012092206863	73.72594814940742	85.81298814322324	0	0
